<svg width="72" height="72" viewBox="0 0 72 72" fill="none" xmlns="http://www.w3.org/2000/svg">
<circle cx="36" cy="36" r="36" fill="#E8EBDD"/>
<path d="M42.8201 40.4777C42.4592 40.8858 42.0804 41.2888 41.6844 41.6849C35.9567 47.4125 28.7808 49.5231 25.6566 46.3989C23.5147 44.257 23.8333 40.2108 26.091 36.0325M29.1859 31.6338C29.5615 31.2068 29.9566 30.7852 30.3707 30.3711C36.0983 24.6435 43.2742 22.5329 46.3984 25.6571C48.5418 27.8004 48.2213 31.8508 45.9594 36.0322M41.6844 30.3711C47.4121 36.0988 49.5226 43.2747 46.3984 46.3989C43.2742 49.5231 36.0983 47.4125 30.3707 41.6849C24.643 35.9572 22.5324 28.7813 25.6566 25.6571C28.7808 22.5329 35.9567 24.6435 41.6844 30.3711ZM37.3331 36.0002C37.3331 36.7365 36.7361 37.3335 35.9998 37.3335C35.2634 37.3335 34.6664 36.7365 34.6664 36.0002C34.6664 35.2638 35.2634 34.6668 35.9998 34.6668C36.7361 34.6668 37.3331 35.2638 37.3331 36.0002Z" stroke="#111111" stroke-width="2" stroke-linecap="round" stroke-linejoin="round"/>
</svg>
