<svg width="50" height="49" viewBox="0 0 50 49" fill="none" xmlns="http://www.w3.org/2000/svg">
<g clip-path="url(#clip0_246_1377)">
<path d="M17.8182 11.2709C14.4098 23.292 14.4098 23.292 16.1893 30.6015C17.0206 34.7282 18.5613 39.3284 19.2709 39.8016C19.6257 40.0382 19.8636 41.2189 20.334 42.0436C20.9266 43.4609 21.8729 45.1093 22.5825 45.5825C22.9373 45.8191 23.7659 46.8826 23.8815 47.4707C24.1193 48.6513 24.7099 48.5344 26.7138 46.2984C31.9028 41.5923 36.2554 31.2227 36.9542 24.0331C37.3029 21.2043 36.2372 15.8992 35.2878 12.7109C34.6952 11.2937 31.2666 6.45686 29.7318 4.92225C28.197 3.38765 23.5879 0.313764 22.9972 0.430842C22.0551 0.313511 19.4667 5.73185 17.8182 11.2709ZM30.0133 39.8209C28.719 42.5302 25.181 46.298 24.1199 45.5904C23.4103 45.1171 19.625 38.5093 18.7956 35.9169C17.9663 33.3245 16.3027 25.0656 16.3018 23.5367C16.4188 22.5927 17.7083 15.286 18.5349 14.8152C18.7708 14.4615 18.4221 17.2903 18.072 21.6512C17.367 25.7754 20.5696 37.1001 23.173 40.8756C23.8826 41.3488 24.7077 42.4102 24.4718 42.7639C24.5908 43.3543 25.3004 43.8275 25.5362 43.4738C25.7721 43.1201 24.9436 42.0565 24.4732 41.2318C23.8806 39.8145 22.9343 38.1661 22.3417 36.7488C19.8526 28.9661 19.1411 26.9585 19.4973 25.6629C19.3784 25.0726 19.4954 24.1286 19.1406 23.892C19.1406 23.892 19.1405 23.892 19.3764 23.5383C19.3764 23.5383 19.4934 22.5943 19.3745 22.004C19.2536 19.8793 19.7186 14.5776 20.0734 14.8142C20.0734 14.8142 20.3112 15.9949 20.1964 16.9356C20.0822 20.9428 21.0342 27.1943 21.748 29.1986C21.9866 31.9081 24.1201 37.9254 24.356 37.5717C24.9467 37.4546 24.7088 36.274 24.2343 33.9182C22.6954 30.8526 21.8663 26.7225 21.9792 24.2474C22.0962 23.3034 21.6216 20.9476 21.6197 19.4132C21.0263 16.4671 21.4873 8.09671 22.1969 8.56996C23.6128 9.51424 25.7551 21.6601 25.6447 28.736C25.4108 30.6241 25.5305 32.7433 26.0042 33.5702C25.8872 34.5142 25.8914 36.0452 25.5352 37.3407C25.1824 38.6384 25.4223 39.8159 25.4223 39.8159C26.1319 40.2891 26.7226 40.1721 26.7185 38.641C26.9544 38.2873 27.1902 37.9336 27.7809 37.8166C28.3716 37.6995 28.3716 37.6995 28.4905 38.2898C28.3736 39.2338 28.7283 39.4704 29.2001 38.763C30.2471 37.933 30.602 38.1695 30.0133 39.8209ZM31.1926 38.0526L30.8378 37.8159C30.483 37.5793 30.719 37.2255 30.719 37.2255C30.719 37.2255 30.9548 36.8719 31.3096 37.1085C31.3096 37.1085 31.4285 37.6989 31.1926 38.0526ZM29.2989 34.7503C29.6518 33.4526 29.7666 32.5118 30.0025 32.1581C30.2384 31.8044 30.4743 31.4507 30.8291 31.6873C31.5387 32.1605 31.1857 33.4583 30.3613 33.9258C30.1255 34.2795 30.1255 34.2795 30.1255 34.2795C30.8351 34.7527 30.5993 35.1063 29.5368 35.9308C28.7124 36.3983 28.9482 36.0447 29.2989 34.7503ZM33.0734 33.6952C32.3699 36.2874 32.134 36.6411 31.7792 36.4044C31.4244 36.1678 31.3055 35.5774 31.5414 35.2237C32.2491 34.1626 32.5997 32.8683 32.7166 31.9243C32.9525 31.5706 32.9526 31.5705 33.3074 31.8071C33.6622 32.0437 33.5452 32.9878 33.0734 33.6952ZM31.063 29.7993C31.4178 30.0359 31.5367 30.6263 31.3008 30.98C31.1838 31.924 30.1195 31.214 30.1208 29.6819C29.9986 29.0894 30.5893 28.9723 31.063 29.7993ZM34.4846 30.0419C34.3676 30.986 33.4221 30.8665 33.3032 30.2761C32.8295 29.4492 33.3013 28.7418 34.0109 29.215C34.3657 29.4517 34.4846 30.0419 34.4846 30.0419ZM31.18 28.8552C30.4704 28.382 30.1155 28.1454 30.3514 27.7917C30.4684 26.8477 30.4684 26.8476 31.5328 27.5575C32.3592 28.6244 32.1233 28.9781 31.18 28.8552ZM33.8953 28.6268C33.3047 28.7439 33.0668 27.5633 33.5386 26.8559C33.5386 26.8559 33.7745 26.5022 34.1293 26.7389C35.1904 27.4465 34.8375 28.7442 33.8953 28.6268ZM32.2384 26.4996C32.1214 27.4437 32.1213 27.4438 31.6476 26.6168L30.2317 25.6726C30.1128 25.0822 30.9394 24.6115 31.2942 24.8481C31.649 25.0847 32.1194 25.9093 32.2384 26.4996ZM35.5424 24.6199C35.3107 26.5047 35.3107 26.5046 34.3652 26.3851C33.7745 26.5021 33.6556 25.9119 33.5367 25.3215C33.063 24.4946 33.2989 24.1409 34.0085 24.6141C34.3633 24.8507 34.718 25.0874 34.9539 24.7337C34.9539 24.7337 34.4802 23.9068 34.1254 23.6702C33.7706 23.4336 33.061 22.9603 33.5328 22.2529C33.4139 21.6626 33.6498 21.3088 34.7142 22.0187C35.7742 22.7352 35.5383 23.0889 35.5424 24.6199ZM31.1731 24.261C30.3446 23.1975 30.6985 21.9053 31.5259 22.9633C31.8807 23.2 31.9997 23.7902 31.7638 24.1439C31.8827 24.7342 31.5279 24.4977 31.1731 24.261ZM31.2881 21.7826C30.9333 21.546 30.4597 20.719 30.3441 20.1309C30.461 19.1869 30.6969 18.8332 31.0517 19.0698C31.4065 19.3065 31.8802 20.1334 31.9958 20.7216C31.9977 22.2559 31.9977 22.2559 31.2881 21.7826ZM35.3004 21.9083C35.4193 22.4986 33.175 20.4907 33.2919 19.5467C32.8182 18.7197 33.0542 18.366 34.1186 19.0759L34.8282 19.5491L34.3544 18.7222C33.6448 18.249 33.29 18.0123 33.29 18.0123C32.9352 17.7757 32.5804 17.5391 32.6974 16.595C32.2237 15.7681 32.4596 15.4143 33.524 16.1242C33.8656 16.352 34.5375 16.7955 34.7923 16.5069C34.8899 16.892 34.9821 17.2782 35.0588 17.6589C35.5377 20.0224 35.5363 21.5546 35.3004 21.9083ZM30.3379 17.0656C29.8642 16.2387 30.1001 15.8849 30.8097 16.3582C31.1645 16.5948 31.6382 17.4218 31.4023 17.7755C31.7571 18.0121 31.8761 18.6023 31.6402 18.956C31.4043 19.3097 30.5757 18.2463 30.3379 17.0656ZM30.6886 15.7712C30.3338 15.5345 29.6243 15.0612 29.7445 14.1194C29.2708 13.2925 29.5066 12.9389 30.2162 13.4121C30.571 13.6488 31.0448 14.4756 31.1604 15.0637C31.3983 16.2444 31.3982 16.2444 30.6886 15.7712ZM30.2075 7.28348C31.9058 8.8746 33.7913 12.6489 34.7601 16.3898C34.6141 16.1635 34.2035 15.5651 33.6398 15.1891C32.5754 14.4793 31.8692 14.0081 32.1051 13.6544C31.6314 12.8275 32.222 12.7105 32.5768 12.9471C32.9316 13.1838 33.2865 13.4203 33.5224 13.0666C33.5224 13.0666 32.6938 12.0031 31.6327 11.2954C30.5683 10.5855 29.5072 9.87794 29.7431 9.52424C30.0979 9.76086 30.6886 9.64374 30.9245 9.29004C31.1604 8.93633 30.4509 8.46299 29.7446 7.99195C28.4443 7.63579 28.3287 7.04773 28.5645 6.69403C28.8004 6.34033 29.0242 5.98328 30.2075 7.28348ZM29.3878 12.3485C29.033 12.1118 28.6782 11.8753 28.5593 11.285C28.6762 10.3409 28.6762 10.341 29.5047 11.4046C30.0973 12.8218 30.0974 12.8217 29.3878 12.3485ZM26.7797 3.97555C27.6082 5.03912 28.3145 5.51009 27.9597 5.27347C27.6049 5.03685 27.369 5.3906 27.1331 5.7443C27.4879 5.98092 26.5424 5.86137 25.7172 4.80001C22.7633 2.31892 22.1745 3.97035 25.1307 6.44814L26.6655 7.98269L25.3653 7.62646C26.4297 8.33633 26.9001 9.16105 26.7831 10.1051L27.0209 11.2858L25.8409 9.98784L25.1313 9.5146C24.8954 9.8683 25.9598 10.5781 26.6661 11.0491C27.0209 11.2858 27.8461 12.3472 28.3198 13.1741L28.5576 14.3548L26.9058 13.7642L27.2606 14.0008C28.6765 14.9451 29.2691 16.3623 28.7996 17.0664C28.7996 17.0664 28.09 16.5932 27.7352 16.3566C27.3804 16.12 26.6707 15.6467 26.6707 15.6467C26.4349 16.0004 26.7897 16.237 27.8541 16.9468C28.9185 17.6567 29.0341 18.2448 28.9171 19.1888C29.036 19.7792 28.8002 20.1328 28.5643 20.4865C28.5643 20.4865 28.5643 20.4865 28.9191 20.7232C29.2739 20.9598 29.2766 24.023 29.4016 27.6787C28.9298 28.3861 28.6981 30.2708 28.4608 32.1567C28.1079 33.4544 27.8761 35.3393 27.6402 35.693C27.1684 36.4004 26.6948 35.5733 26.8071 30.0317C26.9133 21.4248 24.5365 8.10057 22.6469 6.32934L21.5825 5.61947C21.2277 5.38285 23.1126 2.55657 23.9392 2.0858L26.7776 3.97878L26.7797 3.97555Z" fill="#CED5B5"/>
</g>
<defs>
<clipPath id="clip0_246_1377">
<rect width="48.6322" height="48.6322" fill="white" transform="translate(0.908203 0.210693)"/>
</clipPath>
</defs>
</svg>
