<svg width="449" height="361" viewBox="0 0 449 361" fill="none" xmlns="http://www.w3.org/2000/svg">
<path d="M353.156 192.876C358.68 190.117 369.703 184.599 372.465 184.599C389.011 181.841 400.06 176.323 416.606 170.832C427.654 162.556 430.39 159.797 438.676 143.271C449.699 121.227 452.461 99.1835 444.201 85.4159C435.915 74.4069 422.13 66.131 405.584 66.131H391.798L389.037 55.0962C386.275 41.3286 377.988 33.0527 355.918 22.0438C333.847 11.0348 331.086 11.0347 259.35 5.51739C231.755 5.51739 204.159 2.75885 204.159 2.75885C201.397 2.75885 184.851 2.75868 165.542 0C124.163 0 91.0451 8.27616 57.952 22.0438C24.859 38.57 19.3341 49.6046 24.8582 85.4159C27.6203 99.1835 33.1444 121.227 35.8807 132.262C38.6427 143.297 44.1667 154.306 44.1667 157.064C44.1667 159.823 44.1675 165.34 46.9296 170.832C49.6916 176.349 55.2158 184.599 57.952 190.117C60.7141 198.393 88.3078 228.687 91.0698 228.687C91.0698 228.687 96.594 231.445 102.092 234.204C107.616 236.963 115.878 242.48 124.164 242.48C137.948 247.997 146.234 250.756 137.948 250.756C118.639 250.756 71.7357 259.032 66.2116 261.791C63.4496 264.549 55.1893 264.55 46.9031 267.308C38.6169 267.308 27.595 270.067 24.833 270.067C13.8106 272.825 2.76206 278.343 0 283.835C0 283.835 0 289.352 0 292.111C0 294.869 5.52371 303.119 13.7841 311.395C33.0926 333.439 46.8781 336.198 99.3055 338.956C118.614 338.956 135.16 341.715 137.923 341.715C140.685 341.715 143.446 347.232 143.446 349.991C146.208 355.508 148.971 358.267 173.803 361C182.089 361 248.301 361 253.799 358.241C256.561 358.241 259.323 352.724 262.085 349.965C264.847 341.689 267.61 341.689 308.989 336.198C336.584 333.439 358.654 319.671 364.179 305.878C364.179 303.119 369.703 300.361 372.465 300.361C377.989 300.361 377.989 297.602 380.751 289.326C380.751 283.808 380.751 278.291 380.751 278.291C377.989 272.774 361.443 264.524 347.658 261.765C336.61 261.765 295.23 253.489 289.731 253.489C289.731 253.489 281.446 250.73 273.186 250.73H259.4L273.186 245.213C295.256 234.178 309.041 223.169 317.327 214.893L322.85 206.617V217.652C322.85 223.169 325.613 228.661 328.375 231.419C344.921 245.187 364.229 239.695 350.445 225.902C344.921 220.385 344.922 214.893 344.922 209.376C344.87 201.152 344.87 198.393 353.156 192.876ZM38.6435 55.0962C38.6435 55.0962 41.4051 52.3375 41.4051 49.5788C41.4051 41.3028 55.1897 33.0525 93.8327 19.2591C115.903 10.9831 121.428 10.9832 157.283 10.9832C209.71 10.9832 314.539 19.2593 328.323 21.9921C331.085 21.9921 342.108 27.5096 353.156 33.0269C372.465 41.303 375.226 44.0358 375.226 52.3118C380.75 66.0794 377.988 68.8381 366.94 77.1141C344.87 90.8817 342.108 90.8816 333.848 79.8727C331.085 71.5966 325.561 68.8381 317.301 66.1052C314.539 66.1052 300.754 63.3464 289.706 60.5878C267.635 55.0704 259.349 55.0705 237.278 52.3118C228.992 52.3118 217.97 49.553 215.208 49.553C212.446 49.553 190.376 46.7944 168.305 46.7944C124.164 46.7944 115.877 49.5532 93.8062 63.3208C88.2821 66.0795 82.7842 68.8382 80.0222 68.8382C77.2601 68.8382 74.4982 68.8382 71.7361 74.3556C68.9741 79.8729 68.9736 79.8729 55.1892 74.3556C38.6427 68.8382 35.8807 66.0795 35.8807 57.8292C35.8807 55.0963 35.8815 55.0962 38.6435 55.0962ZM325.561 88.1747C325.561 90.9334 322.799 90.9332 320.037 85.4159C314.513 79.8985 317.275 74.4071 322.799 82.6573C325.561 85.416 328.324 88.1747 325.561 88.1747ZM300.728 99.1834C297.966 99.1834 297.967 96.4249 297.967 88.1489C297.967 79.8729 297.966 74.3811 300.728 74.3811C300.728 74.3811 303.49 77.1398 303.49 79.8985V93.6663C306.252 96.4508 303.491 99.1834 300.728 99.1834ZM286.944 85.4159C286.944 99.1835 284.182 101.942 281.42 101.942C275.896 101.942 275.895 99.1835 275.895 85.4159C275.895 74.4069 275.895 68.8895 275.895 68.8895C284.182 68.8895 286.944 71.6483 286.944 85.4159ZM267.636 82.6573C267.636 99.1836 267.635 104.701 264.873 99.1834C264.873 96.4505 264.874 90.9334 267.636 82.6573ZM259.35 82.6573C259.35 93.692 256.587 101.942 256.587 101.942C253.825 101.942 253.825 68.8896 256.587 66.131C256.587 63.3723 259.35 71.6484 259.35 82.6573ZM248.301 79.8985C248.301 99.1834 245.539 104.701 240.015 101.942V79.8985C240.015 66.1309 240.014 63.3724 242.776 63.3724C245.564 63.3724 248.301 66.1309 248.301 79.8985ZM234.517 82.6573C234.517 104.701 231.754 104.701 228.992 101.942C226.23 99.1836 226.23 63.3724 231.754 63.3724C231.754 63.3724 234.517 71.6484 234.517 82.6573ZM220.732 79.8985C220.732 90.9074 220.732 101.942 217.97 101.942C217.97 101.942 217.97 90.9074 217.97 79.8985C217.97 68.8638 217.97 60.6136 217.97 60.6136C220.732 60.6136 220.732 68.8895 220.732 79.8985ZM209.684 104.701C206.922 104.701 206.921 99.1836 204.159 82.6573C204.159 60.6137 206.922 52.3374 209.684 68.8895C209.684 77.1655 209.684 82.6573 209.684 82.6573V93.6921C212.446 101.942 212.446 104.701 209.684 104.701ZM187.614 71.6484C187.614 77.1657 190.375 88.1746 190.375 90.9333C190.375 99.2093 190.375 101.968 184.851 101.968C182.089 104.727 182.089 101.968 182.089 82.6831V60.6394L190.375 57.8808C195.899 57.8808 198.661 57.8806 198.661 68.8895V90.9333C198.661 99.2093 198.661 104.701 198.661 104.701C195.899 104.701 193.137 93.6663 193.137 82.6573C193.137 68.8897 193.137 63.3724 190.375 63.3724C187.613 60.6137 184.852 63.3723 187.614 71.6484ZM176.591 90.9333C176.591 99.2093 176.59 104.701 173.828 104.701C171.066 104.701 171.067 99.1834 171.067 79.8985C171.067 55.0962 171.066 55.0963 173.828 66.131C176.59 71.6483 176.591 82.6572 176.591 90.9333ZM162.781 85.4159C162.781 101.942 162.78 104.701 157.256 104.701C148.97 104.701 148.97 101.942 146.234 96.4248C143.472 88.1488 143.472 57.855 146.234 57.855C148.996 57.855 151.758 68.8638 154.52 85.4159C154.52 99.1835 154.521 99.1835 157.283 90.9333V68.8895C157.283 63.3722 157.283 57.8808 157.283 57.8808C162.781 57.8551 162.781 66.1309 162.781 85.4159ZM140.709 82.6573C140.709 99.1836 140.71 101.942 137.948 101.942C135.186 101.942 135.186 96.4249 135.186 77.1399C135.212 52.3634 137.947 55.0963 140.709 82.6573ZM129.687 82.6573C129.687 93.692 129.687 99.1834 126.925 99.1834C121.401 99.1834 121.401 99.1834 121.401 79.8985C121.401 68.8638 121.402 60.6136 124.164 60.6136C126.926 57.8549 126.925 63.3724 129.687 82.6573ZM113.141 90.9333V60.6136L115.903 68.8895C118.639 79.8984 115.877 99.1835 113.141 90.9333ZM104.855 93.6921C102.093 93.6921 102.092 88.1745 102.092 79.9243C102.092 74.4069 102.093 68.8895 104.855 68.8895C104.855 68.8895 107.617 71.6482 107.617 74.4069V85.4159C110.379 90.9332 107.617 93.6921 104.855 93.6921ZM96.5691 79.8985C96.5691 82.6572 93.8062 88.1747 93.8062 88.1747C91.0442 88.1747 91.0446 82.6572 91.0446 79.8985C91.0446 77.1398 91.0442 74.3811 93.8062 74.3811C93.8062 74.4069 96.5691 77.1398 96.5691 79.8985ZM88.3082 79.8985C88.3082 82.6572 85.5458 85.4159 82.7838 85.4159C80.0217 85.4159 80.0222 82.6573 80.0222 82.6573C80.0222 79.8987 80.0217 77.1399 82.7838 77.1399C85.5458 77.1399 88.3082 77.1398 88.3082 79.8985ZM245.565 347.181C231.78 352.698 154.52 349.94 154.52 344.422C154.52 344.422 162.806 344.422 173.828 344.422H220.732C253.825 341.664 256.587 341.664 245.565 347.181ZM339.346 316.887C336.583 319.646 328.324 322.404 317.275 322.404C308.989 325.163 295.204 327.922 286.918 330.68C281.394 330.68 270.372 333.439 264.848 330.68C262.086 330.68 240.015 333.439 220.706 333.439C198.636 333.439 179.328 333.439 179.328 333.439C176.566 333.439 146.234 330.68 115.878 327.922C74.4984 327.922 52.4277 325.163 44.1415 322.404C33.1191 316.887 33.1191 314.128 44.1415 316.887C55.1897 322.404 146.208 327.922 190.349 327.922C206.895 327.922 240.015 325.163 264.848 322.404C286.918 319.646 314.513 316.887 322.773 316.887C331.06 316.887 339.32 314.128 342.082 314.128C342.108 314.128 342.108 314.128 339.346 316.887ZM273.134 261.765C286.918 261.765 303.49 264.524 314.513 267.282C322.799 270.041 336.584 272.8 344.87 272.8C358.654 275.558 369.703 281.076 369.703 286.567C369.703 292.085 358.68 300.335 347.632 300.335C342.107 300.335 339.346 300.335 336.584 303.094C336.584 303.094 320.037 305.852 300.728 308.611C284.182 311.37 259.349 314.128 248.301 316.887C228.992 319.646 179.327 319.646 135.186 314.128C118.64 314.128 93.8071 311.37 77.2606 311.37C63.4761 311.37 44.1418 308.611 38.6435 305.852C24.8591 303.094 8.28607 292.085 8.28607 289.326C8.28607 283.808 22.0709 278.291 44.1415 272.8C55.1897 270.041 71.7354 267.282 79.9957 264.524C88.2819 261.765 99.3054 261.765 107.592 261.765C113.116 261.765 124.138 259.006 129.662 259.006C140.684 256.248 143.446 259.006 148.97 264.524C151.732 267.282 154.494 272.8 157.256 275.533C160.018 278.265 165.543 278.291 201.398 281.05C240.015 281.05 245.539 281.05 248.301 275.533C251.063 272.774 253.825 267.256 253.825 264.524C253.825 261.765 253.825 261.765 273.134 261.765ZM162.781 259.006C162.781 256.248 171.066 256.248 193.137 259.006C209.683 259.006 226.256 259.006 231.754 256.248C237.278 256.248 242.776 256.248 242.776 256.248C242.776 256.248 242.776 259.006 242.776 264.524C240.014 272.8 237.253 272.8 193.112 270.041C168.305 267.282 160.019 264.524 162.781 259.006ZM297.967 217.678C278.658 231.445 253.825 242.48 234.517 245.239C226.231 247.997 217.97 247.997 217.97 247.997C217.97 247.997 204.186 247.997 187.614 245.239C121.402 242.48 71.7357 212.16 55.1892 165.34C41.4047 121.253 30.3565 79.9243 35.8807 79.9243C35.8807 79.9243 68.9739 88.2003 99.3307 99.2092C135.186 112.977 151.759 115.736 206.922 112.977C286.919 110.218 344.87 101.942 364.179 90.9333C372.465 85.4159 372.465 85.4161 369.703 93.6921C355.919 137.779 322.8 198.393 297.967 217.678ZM347.632 168.073C350.394 162.556 353.156 154.306 358.654 148.788C361.416 140.512 369.677 129.503 375.201 123.986C383.487 112.951 388.985 112.951 397.271 112.951C413.818 112.951 416.58 123.986 402.796 140.512C391.773 151.547 380.725 159.797 364.179 165.314C355.892 165.314 347.632 168.073 347.632 170.832C342.107 173.59 342.107 170.832 347.632 168.073ZM347.632 184.625C347.632 181.866 364.179 173.616 369.703 173.616C389.012 173.616 424.892 140.564 424.892 121.253C424.892 107.485 397.297 96.4507 383.512 101.968C377.988 107.485 375.227 104.727 377.989 101.968C380.751 90.9333 391.773 79.9243 402.821 79.9243C413.869 77.1656 424.892 79.9243 433.178 90.9333C441.464 99.2093 441.464 121.253 435.94 129.503C433.178 132.262 433.178 137.779 433.178 140.538C433.178 154.305 402.822 173.59 375.253 176.349C366.966 176.349 358.706 179.108 355.944 181.867C350.394 187.358 347.632 187.358 347.632 184.625Z" fill="#353F44"/>
</svg>
