<svg width="50" height="49" viewBox="0 0 50 49" fill="none" xmlns="http://www.w3.org/2000/svg">
<g clip-path="url(#clip0_246_1411)">
<path d="M24.4466 48.7881C26.5788 49.211 31.7016 47.1005 32.9834 45.4089C34.6883 43.7213 35.1155 39.4963 35.1155 28.9358C35.1155 23.0232 35.1155 18.3754 35.1155 18.3754C34.6883 18.3754 34.261 17.5296 33.8338 17.1067C32.1248 14.9962 32.1249 11.1941 33.4066 10.3483C34.2611 9.92539 34.2612 9.0796 34.2612 6.1233C33.8339 1.05648 32.9793 0.210693 27.8604 0.210693C22.3143 0.210693 18.0459 1.47938 17.6187 3.167C17.6187 3.58989 17.1914 4.01278 16.7641 4.01278C16.7641 4.01278 16.7641 4.85857 16.7641 6.1233C16.7641 7.39198 16.337 8.65671 15.9098 8.65671C15.9098 9.0796 16.337 9.92539 17.6148 11.1901C18.4692 12.0359 19.7469 13.3006 19.7469 13.3006C19.7469 13.7235 18.8924 14.5693 18.4652 15.4111C17.6107 16.2569 16.7602 17.5217 16.7602 18.7903C16.333 22.1695 15.9057 29.3508 15.9057 32.73C15.4784 34.4216 15.4785 38.2197 15.4785 40.3342C15.4785 44.5592 15.4785 44.5592 16.7602 45.8239C17.6187 47.0965 21.0326 48.3652 24.4466 48.7881ZM32.5562 6.54619C32.1289 6.96909 32.1289 7.81487 31.7016 8.65671L31.2745 9.92538L30.8471 8.23777C30.8471 6.96909 30.8472 6.12725 31.7016 6.12725C32.5561 5.28146 32.9834 5.70041 32.5562 6.54619ZM23.1688 1.90227C26.5827 1.05648 28.7149 1.05648 30.4238 1.90227C32.556 2.32516 32.1289 3.58989 29.9967 4.85857C27.01 6.12725 20.1822 6.12725 19.3277 4.43567C18.9005 3.16699 20.1821 2.7441 23.1688 1.90227ZM29.9967 8.66066C29.9967 9.50644 29.9967 10.3483 29.9967 10.3483C29.5694 10.3483 29.5695 9.50249 29.5695 8.66066C29.5695 7.39198 29.5695 6.97304 29.5695 6.97304C29.9967 6.96909 29.9967 7.39198 29.9967 8.66066ZM28.2878 8.66066C28.2878 9.50644 28.2877 10.3483 27.8604 10.3483C27.4332 10.3483 27.006 10.3483 27.4333 9.0796C27.4372 6.96908 28.2878 6.54619 28.2878 8.66066ZM26.5828 9.0796C26.5828 10.7672 25.3011 11.1901 24.8778 9.50249C24.4506 7.81487 24.8777 6.96909 25.7322 7.39198C26.1554 7.39198 26.5828 8.23776 26.5828 9.0796ZM24.0233 8.66066C24.0233 9.92934 23.596 10.7712 23.1688 10.7712C22.7415 10.7712 22.7415 7.39198 23.1688 7.39198C23.596 6.96909 24.0233 7.81487 24.0233 8.66066ZM19.3277 9.50249C18.046 9.0796 18.0458 9.0796 18.0458 7.81487C18.0458 6.96908 18.0458 6.54619 18.0458 6.54619C18.9003 6.54619 19.3277 7.39198 19.7549 8.23777C19.7549 8.66066 20.1821 9.08355 20.1821 9.08355C20.6093 9.50645 21.0367 9.08355 20.6094 8.23777C20.6094 7.39198 20.6094 6.96909 21.0366 7.39198C21.0366 7.39198 21.4638 8.23776 21.4638 8.66066C21.887 10.3483 21.4599 10.3483 19.3277 9.50249ZM17.1954 32.3111C17.1954 28.509 17.1955 25.1298 17.6228 25.1298C17.6228 25.1298 18.4772 25.1298 19.7549 25.5527C20.6094 25.9756 23.1689 26.3985 25.3011 26.3985H29.1421L28.715 33.1569C28.715 36.959 28.2878 40.3382 28.2878 40.3382C28.2878 40.761 27.4333 41.1839 26.5828 41.6068C24.4506 42.8755 21.8871 42.4526 18.4732 40.3382L16.7682 39.4924L17.1954 32.3111ZM17.1954 41.6068C18.4771 42.8755 22.3143 43.7173 24.4505 43.7173C26.5867 43.7173 27.8644 43.2944 29.5734 41.6068C30.0006 41.1839 30.4279 39.9153 30.4279 32.315L30.8551 23.8651L29.1501 24.288C25.7362 25.1337 20.6133 24.7108 18.9084 23.0193C18.0539 22.5964 17.6267 21.7506 17.6267 21.7506C18.0539 18.7943 18.4811 17.5256 19.7588 16.2609C21.4638 14.5693 21.4638 14.1504 21.0405 12.4588L20.6133 11.613H25.7363C28.2957 11.613 30.8551 11.613 30.8551 12.0359C30.8551 13.7235 31.7096 17.1027 32.5601 17.9485L33.8418 19.2172L33.4146 30.2006C33.4146 41.1839 32.9874 44.5631 32.1329 44.5631C31.7057 44.5631 30.8512 44.986 30.0008 45.4089C27.0141 47.5194 23.6 47.5194 19.3316 45.8318C17.1994 44.5631 16.7721 43.7213 16.7721 42.0297C16.7681 41.6068 16.7681 41.1839 17.1954 41.6068Z" fill="#CED5B5"/>
</g>
<defs>
<clipPath id="clip0_246_1411">
<rect width="48.6322" height="48.6322" fill="white" transform="translate(0.888672 0.210693)"/>
</clipPath>
</defs>
</svg>
