<svg width="42" height="41" viewBox="0 0 42 41" fill="none" xmlns="http://www.w3.org/2000/svg">
<path d="M2.90279 29.7791C3.38769 31.2238 3.87258 32.664 4.35749 33.6271C5.8122 36.512 10.1718 39.3969 14.5269 39.8785C18.8865 40.8416 24.2113 40.8416 26.6358 39.8785C35.8399 36.0305 40.68 30.2607 41.1649 21.12C41.6498 18.7166 41.1649 15.8273 41.1649 15.3457C40.1951 11.4977 38.2599 7.64968 36.8052 5.72792C34.8701 3.80167 31.4759 1.87991 29.5408 1.39835C29.0559 1.39835 27.6057 0.916779 26.151 0.435215C21.3064 -0.527912 14.0419 0.435231 8.71251 3.32011C6.29252 4.28324 1.44795 11.4977 0.963042 14.8641C-0.00676927 18.2306 -0.00684893 21.597 1.44787 24.4819C1.93277 25.9311 2.41788 28.3344 2.90279 29.7791ZM2.90279 23.0462C3.8726 22.5647 5.32271 23.0462 5.32271 24.0094C5.80762 24.9725 5.32265 25.454 4.35284 25.454C2.90265 25.4495 2.41788 24.0049 2.90279 23.0462ZM3.87244 26.8942C3.87244 26.4126 5.80754 25.9311 5.80754 26.4127C5.80754 26.8942 5.32265 27.3758 4.35284 27.3758C3.87247 27.3758 3.87244 27.3758 3.87244 26.8942ZM4.83767 10.0575C7.74257 5.72792 8.71242 4.76481 12.5871 3.32462C15.0071 2.36149 16.4619 2.36148 21.7913 2.36148C27.6011 2.36148 28.0861 2.36149 30.5106 3.32462C34.8703 6.2095 36.3204 7.65417 38.7449 14.3871C40.1997 18.7166 39.7148 25.4496 37.2902 29.2976C35.8355 31.7009 32.9305 35.5489 31.9607 35.5489C31.9607 35.5489 30.9909 35.5489 30.506 36.0304C30.0211 36.512 28.5709 37.4752 27.1162 37.9567C23.7264 38.9198 17.4271 39.4014 14.5222 38.9198C9.67771 37.9567 6.77278 35.5534 5.31807 31.7054C3.86335 27.8574 4.83317 27.3758 7.25316 30.2607C8.70788 31.7054 9.18833 32.664 10.1581 32.664C11.1279 32.664 12.0932 32.664 12.5781 33.6271C13.063 34.1087 14.5177 35.0718 15.9679 35.5534C18.3879 36.5165 18.8728 36.9981 20.3275 36.035C21.2973 36.035 22.2627 35.0718 23.2325 34.5903C23.7174 34.1087 24.6872 33.6271 25.6524 33.6271C26.6177 33.6271 29.0423 32.1825 31.9472 30.2607C33.4019 28.816 34.852 26.4127 34.3671 24.0094C33.8822 22.5647 34.3673 21.606 34.8522 21.1245C35.822 20.1613 35.8219 16.7949 35.337 14.8731C34.8521 14.3916 33.4019 12.9469 31.9472 12.4698C30.4925 11.5067 29.5273 10.5436 29.5273 10.0665C29.5273 9.58494 29.0423 9.10336 28.5574 8.6218C27.5876 8.14024 27.1027 7.65867 25.1676 8.14023C23.7129 8.14023 22.7476 8.14026 21.7778 7.17713C18.8729 5.25537 15.4831 5.73242 12.5736 8.6218C11.6038 9.58493 10.1536 10.5436 9.18384 11.0251C8.21403 11.5067 6.76377 13.4284 6.27887 15.3547C6.27887 15.8363 6.27895 16.7994 5.79404 17.758C4.82423 18.2396 4.82417 19.2027 4.82417 20.1613C4.82417 21.12 3.85443 22.0876 2.40424 22.0876C1.91934 22.0876 1.9192 21.1245 1.9192 18.2396C1.93279 14.3871 2.41767 13.9055 4.83767 10.0575ZM32.9306 20.1568C31.9608 21.12 31.4758 21.12 28.5709 21.12C24.2113 21.12 23.7264 21.12 25.1811 19.1937C26.1509 18.2306 27.6011 16.7904 28.5709 15.3457C29.5407 13.901 30.506 12.9424 30.506 12.9424C30.9909 12.9424 31.4758 13.4239 32.4411 13.9055C34.3853 15.3502 34.8702 18.7166 32.9306 20.1568ZM29.5408 29.7791C28.0861 30.7422 26.6359 31.2238 26.151 31.2238C23.731 31.2238 23.7309 31.2238 23.246 27.3758C22.2762 22.0831 22.2763 22.5646 25.6661 22.5646C30.9956 23.0462 32.9306 23.5278 32.9306 24.0094C33.4155 25.4496 31.9608 28.3344 29.5408 29.7791ZM24.2112 17.7535C22.7565 19.1982 21.7913 20.1568 21.7913 19.6798C21.7913 18.2351 24.2112 11.0206 24.2112 11.0206C24.6961 10.5391 25.1811 10.5391 25.1811 10.0575C25.1811 9.57593 25.1812 9.09436 26.151 9.57593C27.6057 9.57593 27.6057 9.57594 27.6057 11.5022C27.6011 13.9055 26.6358 15.3502 24.2112 17.7535ZM15.9769 25.4495C20.3365 20.6384 20.8215 21.12 21.7913 29.7791L22.2764 33.6271L20.3413 34.1087C18.4062 35.0718 18.8864 35.0718 16.4664 33.6271C15.0117 33.1456 14.5314 32.1824 14.0465 31.2238C13.0721 29.2975 13.5569 28.3344 15.9769 25.4495ZM11.6219 29.2976C10.6521 30.7423 9.68683 30.7422 8.23211 28.816C6.29702 26.8897 6.77731 25.9311 8.71694 24.968C10.652 24.0049 15.4967 22.5647 15.9816 23.0462C15.9816 23.0462 15.4967 24.0093 14.0465 25.4495C13.0721 26.8942 12.1023 28.3344 11.6219 29.2976ZM21.3065 13.9055C20.8216 15.8273 20.3366 17.7535 20.3366 17.7535C19.8517 18.7167 15.0073 11.0206 15.0073 9.09439C15.0073 8.13126 16.9469 7.64968 18.3971 7.64968C19.3669 7.64968 20.332 8.13126 21.3018 8.61282L22.2717 9.57593L21.3065 13.9055ZM15.4965 14.3871C16.4663 16.3133 17.4316 17.7535 17.4316 18.2351C17.9165 18.7167 16.4619 18.2351 11.6219 16.7904C8.71701 16.3088 8.71694 15.8273 8.71694 14.8686C8.71694 13.4239 10.1718 11.9838 12.5918 11.5022C13.5571 11.5022 13.5569 11.5022 15.4965 14.3871ZM13.0722 19.1982C14.5269 19.6798 16.4619 19.6798 16.9468 19.6798C18.8819 20.1613 17.9166 20.6429 15.9769 21.1245C15.0071 21.1245 13.0722 21.606 11.6175 22.0876C10.1628 22.5692 8.71259 22.5691 8.22769 22.5691C7.25787 22.5691 6.29259 21.606 6.29259 20.6429C6.29259 17.7535 7.74728 17.2719 13.0722 19.1982Z" fill="#CED5B5"/>
</svg>
