<svg width="50" height="49" viewBox="0 0 50 49" fill="none" xmlns="http://www.w3.org/2000/svg">
<g clip-path="url(#clip0_246_1397)">
<path d="M11.4142 46.023C11.1962 46.6747 10.7603 47.3243 10.3264 47.5416C9.67256 48.4084 9.6726 48.6257 10.1085 48.8429C10.1085 48.8429 10.7623 48.6257 11.1962 48.1912C11.4141 47.7568 12.0659 47.3223 12.5018 47.1071C12.9377 46.8899 13.3716 46.4554 13.8075 46.023C15.3311 44.9389 17.0726 43.6355 17.9444 43.2031C18.1624 42.9858 19.25 42.3362 19.9038 41.6845C20.7736 41.0328 21.6454 40.3831 21.8633 40.1659C22.951 39.297 26.4341 35.8274 27.7417 34.3068C28.3956 33.6551 29.4833 32.3538 30.3551 31.2696C31.2248 30.4007 32.3145 29.0994 32.5325 28.4497C33.1863 27.3656 33.6202 26.9311 35.1438 25.1953C36.2315 23.894 39.2807 17.6004 39.7146 15.6494C39.9325 14.3481 40.1504 13.9136 39.9325 12.8295C39.4966 11.7454 38.8448 10.6592 38.4089 10.442C37.973 10.442 38.191 10.2248 38.4089 9.14065C38.8448 8.27376 39.0627 6.97038 39.2786 5.23457C39.2786 3.71599 39.4966 1.98019 39.4966 1.54573C39.7145 0.678841 39.7145 0.678842 38.8427 0.461612C37.3191 0.0271529 37.3191 -0.190081 37.3191 2.8491C37.3191 5.01937 37.3192 5.88626 36.8833 7.40484L36.2294 9.35788H35.3597C34.49 9.35788 32.9643 9.79234 32.3125 10.442C32.3125 10.442 31.8766 10.8765 31.6586 11.0937C29.0474 12.8295 25.7802 17.3852 24.2567 21.5085C24.0387 22.1602 22.951 24.3284 22.0792 26.2815C21.2095 28.0173 20.3377 29.9703 20.1197 30.4048C19.6838 31.4889 17.9423 34.9605 17.2905 36.0467C17.2905 36.0467 17.0726 36.4811 17.0726 36.6984C16.2028 38.2169 13.3716 43.2071 12.2839 44.7257C12.066 44.9389 11.848 45.5885 11.4142 46.023ZM18.8141 41.8997C18.5961 41.8997 18.5962 41.6824 18.5962 41.248C18.5962 41.0308 18.5961 41.0308 18.8141 41.0308C18.8141 41.0308 19.0321 41.248 19.0321 41.4652C19.0321 41.6824 18.8141 41.8997 18.8141 41.8997ZM20.3378 40.5983C20.1198 40.5983 19.9018 39.9466 19.9018 39.297C19.9018 38.6453 20.1198 39.0798 20.3378 39.9487C20.3378 40.1639 20.3378 40.5983 20.3378 40.5983ZM36.0115 10.8724C36.4474 10.8724 36.6653 10.0055 37.0991 8.48489C37.753 6.53186 37.9689 5.66497 37.9689 3.49471C38.1868 1.32444 38.4048 0.457552 38.6227 1.32444C38.6227 1.54167 38.6228 5.01328 38.4048 6.31463C38.4048 6.96632 37.9689 8.05044 37.751 9.13456C37.0972 10.8704 37.0972 11.3048 37.0972 11.7393C36.8792 12.1737 36.4434 12.1737 36.0095 11.7393C35.5777 11.3068 35.5776 11.0896 36.0115 10.8724ZM19.25 33.4379C21.8633 28.0132 22.951 25.843 24.9105 21.5045C26.87 17.1639 28.1756 15.2129 30.571 12.8254C31.8766 11.5241 32.7484 10.8724 33.6182 10.4379C34.9238 9.78624 35.7956 9.78625 35.1417 10.2207C34.7058 10.6552 34.7059 11.3048 35.5777 12.1737C36.6653 13.4751 37.973 13.2579 38.1889 11.9565C38.1889 11.3048 38.189 11.3048 38.4069 11.7393C38.4069 11.9565 38.6248 12.1737 38.8427 12.391C38.4068 12.6082 38.4068 13.4751 38.8427 13.6923C38.8427 13.6923 39.0607 13.9095 39.0607 14.1268C39.0607 14.5612 38.8428 14.5612 38.4069 14.1268C37.7531 13.4751 37.7531 13.9095 38.4069 14.7785C39.0607 15.8626 39.0607 16.297 38.4069 15.4301C37.971 14.9957 37.5372 14.5633 37.5372 14.7785C37.3192 14.7785 37.3192 14.9957 37.7551 15.4301C37.973 15.8646 38.4089 16.297 38.6248 16.5143C38.6248 16.7315 38.4069 16.5143 37.971 16.0798C37.5351 15.6454 37.3171 15.2129 37.1012 15.2129C36.8833 15.4302 36.8833 15.8646 37.1012 16.0798C37.5371 16.0798 38.4068 17.5984 38.1889 17.5984C38.1889 17.5984 37.753 17.3812 37.5351 16.9467C37.0992 16.7295 36.6653 16.5122 36.6653 16.5122C36.4474 16.5122 36.6653 16.9467 37.1012 17.5964C37.7551 18.0308 37.971 18.4632 37.7551 18.6805C37.7551 19.1149 37.5371 18.8977 37.1012 18.4632C36.6653 18.0288 36.2315 17.8116 36.2315 17.8116C36.0135 17.8116 36.2315 18.246 36.6674 18.8957C36.8854 19.1129 37.3212 19.5474 37.3212 19.7646C37.3212 19.9818 36.4514 19.3301 36.2335 18.6805C36.2335 18.4632 36.0156 18.4632 35.7977 18.4632C35.5797 18.4632 35.5796 19.1149 36.2335 19.7646C36.4514 19.9818 36.8874 20.4163 36.8874 20.6315C36.8874 20.8487 36.4515 20.6315 36.0177 20.197C35.5818 19.5453 35.1478 19.3281 34.9299 19.3281C34.9299 19.5453 35.1478 19.9798 35.5837 20.4122C36.0196 20.8467 36.4535 21.4963 36.4535 21.7136C36.4535 21.9308 36.2355 21.9308 35.5837 21.2791C35.3658 20.6274 34.9299 20.4102 34.714 20.4102C34.496 20.4102 34.4961 20.8446 35.1499 21.4943C35.8037 22.3632 36.0196 23.2301 35.8037 23.2301C35.5858 23.2301 35.5858 23.0129 35.5858 22.7957C35.5858 22.5784 34.2802 21.2771 34.0622 21.2771C33.8443 21.0598 34.0622 21.7115 34.498 22.144C34.716 22.3612 34.934 22.5784 34.934 22.7957C34.934 23.0129 34.934 23.2301 35.152 23.2301C35.5879 23.4473 35.5879 23.6646 35.152 24.097L34.7161 24.5315L34.2801 23.6625C33.6263 22.5784 33.4104 22.3612 33.1925 22.5784C32.9745 22.7957 32.9745 23.0129 33.4104 23.6625C34.2801 24.3142 34.2802 24.7467 33.8463 25.6156C33.6284 26.05 33.4104 26.05 32.9766 24.9639C32.5407 24.095 32.3227 23.6625 32.3227 24.3122C32.3227 24.5294 32.3228 24.9639 32.7586 25.3963C32.9766 26.048 32.9766 26.4804 32.9766 26.6977C32.7586 26.9149 32.5407 26.6977 32.3227 26.046C32.1048 25.3943 31.8868 25.3943 31.6689 25.3943C31.6689 25.6115 31.6688 26.046 32.1047 26.4784C32.3227 27.1301 32.5407 27.5625 32.3227 27.5625C32.3227 27.7798 32.1048 27.5625 31.8868 27.3453C31.6689 26.6936 31.233 26.2612 31.0171 26.4784C31.0171 26.4784 31.0171 26.9129 31.2351 27.3453C31.671 27.997 31.8888 28.8639 31.6709 28.6467C31.4529 28.6467 31.235 28.4294 31.0171 27.7777C30.5812 27.3433 30.3632 27.126 30.1473 27.126C30.1473 27.3433 30.1473 27.7777 30.5832 28.2102C31.0191 29.0791 31.237 29.7287 30.8011 29.7287C30.5832 29.7287 30.3652 29.2943 30.1473 28.8598C30.1473 28.4254 29.9293 28.2081 29.7114 28.2081C29.4934 28.2081 29.4935 28.8598 29.9294 29.2922C30.1473 29.7267 30.3652 30.1591 30.1473 30.3764C30.1473 30.8108 29.9294 30.5936 29.4935 29.7247C28.8396 28.6406 28.4057 29.073 29.0575 30.1591C29.4934 31.026 29.4935 31.4605 29.2756 31.4605C29.0576 31.4605 28.8397 31.026 28.6217 30.5936C28.1858 29.5095 27.9679 29.2922 27.9679 29.9419C27.9679 30.1591 27.9678 30.5936 28.4037 31.026C28.6217 31.6777 28.6217 31.8949 28.4037 32.1101C28.1858 32.5446 27.9678 32.5446 27.7499 31.6757C27.7499 31.024 27.532 30.5916 27.3141 30.5916C27.0961 30.3743 27.0961 30.8088 27.3141 31.8929C27.532 32.3274 27.532 32.977 27.532 33.1943C27.532 33.6287 27.314 33.1943 26.6622 31.6757C26.2263 30.5916 26.2263 31.4584 26.6622 32.7598C26.8802 33.4115 27.0981 33.8439 26.8801 34.0611C26.4442 34.7128 26.2263 34.7128 26.0104 33.8439C25.7924 33.1922 25.3565 32.5426 25.1406 32.7598C25.1406 32.7598 25.3586 33.4115 25.5766 34.0611C25.7945 34.9301 25.7945 35.3625 25.7945 35.5797C25.5765 35.5797 25.3586 35.5797 25.3586 35.1453C25.1407 34.4936 24.4888 33.6267 24.2709 33.8439C24.2709 33.8439 24.2709 34.2784 24.7068 34.7108C24.9247 35.3625 24.9247 35.7949 24.9247 36.0121C24.9247 36.2294 24.7068 36.2294 24.4889 35.5777C24.2709 34.926 24.053 34.7088 23.8351 34.7088C23.3992 34.7088 23.3991 34.7088 24.053 35.3605C24.2709 36.0121 24.4888 37.0963 24.2709 36.879C24.0529 36.879 23.835 36.4446 23.617 36.0121C23.3991 35.3605 23.1812 35.1432 22.9632 35.1432C22.9632 35.3605 22.9632 35.7949 23.3991 36.4446C23.6171 37.3115 23.6171 37.5287 23.3991 37.7459C23.1812 38.1804 22.9632 38.1804 22.9632 37.7459C22.9632 37.3115 22.3094 36.0101 22.0915 36.0101C21.8735 36.0101 21.8735 36.0101 21.8735 36.2273C21.8735 36.4446 21.8735 36.6618 21.8735 36.6618C22.3094 36.6618 22.9612 38.1804 22.7432 38.6148C22.7432 38.6148 22.3073 38.1804 22.0894 37.5307C21.6535 36.879 21.4356 36.6638 21.4356 36.879C21.4356 37.0963 21.4356 37.5307 21.6536 37.9632C22.3074 39.0473 22.3074 39.2645 21.8715 39.2645C21.6535 39.2645 21.4356 38.83 21.4356 38.3956C20.9997 37.5287 20.7817 37.3115 20.5658 37.5287C20.5658 37.7459 20.7838 38.1804 21.0017 38.6128C21.2197 39.2645 21.2196 39.6969 21.2196 39.9142C21.0017 39.9142 20.7838 39.9142 20.5658 39.2625C20.3479 38.6108 20.13 38.3935 20.13 38.3935C19.6941 38.3935 19.2601 39.2625 19.4761 40.1294C19.694 41.2135 19.2582 41.4307 19.0402 40.5638C18.8223 40.1294 18.6043 39.9121 18.6043 39.9121C18.1684 39.9121 17.7346 40.9963 17.9505 41.6479C17.9505 42.0824 17.9505 42.2996 17.9505 42.2996C17.7325 42.2996 17.5146 42.0824 17.5146 41.8652C17.2966 40.9963 16.8608 41.2135 17.0787 42.0824C17.0787 42.2996 17.0787 42.7341 16.8607 42.7341C16.8607 42.7341 16.8607 42.7341 16.8607 42.5169C16.8607 42.2996 16.6428 41.8652 16.6428 41.8652C16.4249 41.8652 16.4248 42.0824 16.4248 42.2996C16.4248 42.9513 16.2069 42.9513 15.989 42.5169C15.5531 42.0824 15.553 42.0824 15.771 42.7341C15.771 43.3858 15.5531 43.8182 15.3352 43.3858C15.1172 42.9533 14.8992 42.9513 14.8992 43.3858C14.8992 43.603 14.8992 43.8202 15.1172 43.8202C15.1172 43.8202 15.1172 43.8202 15.1172 44.0375C15.1172 44.0375 14.8993 44.2547 14.6813 44.2547C14.4634 44.2547 14.2454 44.4719 14.2454 44.6891L13.3757 45.5581C11.8521 46.6422 11.8521 46.6422 12.288 45.7753C12.7239 45.3408 13.1577 44.6912 13.3757 44.474C13.8075 43.8527 16.6387 38.6453 19.25 33.4379Z" fill="#CED5B5"/>
</g>
<defs>
<clipPath id="clip0_246_1397">
<rect width="48.6322" height="48.6322" fill="white" transform="translate(0.888672 0.210693)"/>
</clipPath>
</defs>
</svg>
