<svg width="19" height="50" viewBox="0 0 19 50" fill="none" xmlns="http://www.w3.org/2000/svg">
<path d="M14.6722 10.8729C14.6722 10.8729 14.3245 11.9162 14.3245 12.9563C14.3245 13.9996 13.9766 15.3874 13.9766 15.7352C13.9766 16.0829 13.9766 16.7784 13.9766 16.7784C14.3243 16.7784 15.3677 12.9562 15.3677 11.5684C15.3677 10.8729 15.0199 10.8729 14.6722 10.8729Z" fill="#CED5B5"/>
<path d="M11.5488 14.6951C11.5488 14.6951 11.201 14.6951 10.8532 14.6951C10.5054 14.6951 9.80986 17.1262 10.1576 17.474C10.1576 17.474 10.8532 17.474 11.2009 17.474C11.8965 17.1262 11.8965 17.1263 11.8965 15.7384C11.8965 14.6951 11.8965 14.3474 11.8965 14.3474C11.5487 14.3474 11.5488 14.3473 11.5488 14.6951ZM11.2009 16.7785C10.5054 17.1262 10.5054 16.7785 11.2009 15.7352C11.2009 16.0829 11.2009 16.7785 11.2009 16.7785Z" fill="#CED5B5"/>
<path d="M12.5887 15.0429C12.5887 16.4339 12.5887 17.474 12.5887 17.474C12.9365 17.474 13.6321 12.9595 13.2843 12.6117C12.9366 12.264 12.9365 12.6117 12.5887 15.0429Z" fill="#CED5B5"/>
<path d="M16.0632 11.9162C16.0632 12.6117 15.7155 13.9995 15.3677 14.6951C15.02 15.3906 15.0199 16.0829 15.0199 16.0829C15.0199 16.0829 15.02 16.0829 15.3677 16.0829C16.0633 15.7351 17.1033 10.1773 16.411 10.1773C16.0633 10.1773 16.0632 10.5251 16.0632 11.9162Z" fill="#CED5B5"/>
<path d="M14.3276 1.14842C12.9398 0.800653 9.11765 0.452881 8.07434 0.452881C5.99099 0.800649 3.55973 2.18845 2.16866 3.92729C1.12536 4.97059 0.433124 6.35843 0.433124 6.70619C0.0853568 7.7495 0.433067 11.5684 0.780835 12.264C1.1286 12.6117 1.47652 13.6551 1.82428 14.3473C1.82428 15.3906 2.51967 16.4307 3.21195 17.1262L4.2554 18.514L3.55982 19.5574C3.21205 20.2529 2.51643 20.9452 2.16866 21.2929C1.12536 21.6407 1.82088 23.0285 3.21195 22.3362C3.90749 21.9885 5.99094 21.9885 5.99094 22.3362C5.99094 22.684 5.64323 24.0718 5.64323 25.8107C5.29546 28.5896 4.94764 31.3684 3.55982 37.6218C2.86429 41.0962 1.47641 48.0418 1.47641 48.3896C1.47641 48.3896 1.82423 48.7373 2.17199 48.7373C2.51976 49.0851 3.21525 49.0851 3.90753 49.0851C4.95083 49.0851 5.29546 48.3895 5.64323 45.6106C5.64323 44.5673 5.99098 41.7885 6.68652 39.3573C7.03429 36.9262 7.38194 33.7996 7.38194 32.4117C8.42524 25.4629 8.76987 24.7706 9.11763 24.4228C9.4654 24.4228 10.1609 23.7273 10.1609 23.3796C10.5087 22.3363 10.5086 22.3362 11.8965 22.684C12.9398 23.3796 13.2843 22.684 12.9398 21.2929C11.8965 19.5573 11.8964 19.2096 13.983 18.514C16.4142 17.8185 17.4575 16.7785 18.153 13.6518C18.8486 11.2207 18.5009 6.35841 17.8053 4.61957C17.1065 3.57952 15.0199 1.49619 14.3276 1.14842ZM7.0309 28.2418C6.68313 31.0207 6.33547 33.4518 6.33547 33.7996C6.33547 34.1473 5.98761 35.1874 5.98761 36.2307C5.98761 37.274 5.63989 38.314 5.63989 39.0096C5.29213 39.7051 4.59659 43.8718 4.25207 45.9552C4.25207 46.6507 4.25213 46.9985 3.90436 46.9985C3.55659 46.9985 3.20878 46.9985 3.20878 47.3463C2.86101 47.694 2.5133 47.3463 2.86107 46.6507C2.86107 46.303 3.20872 44.5674 3.55649 43.1763C3.90426 41.4407 4.25207 39.3541 4.25207 38.6618C4.59984 37.9663 4.94759 36.2307 5.29536 35.1874C5.64313 33.7996 5.99088 32.0607 6.33865 30.6729C6.33865 29.2818 6.68652 27.894 6.68652 27.5462C6.68652 26.8507 7.03423 25.4629 7.03423 24.4196C7.03423 23.0318 7.03417 22.3362 7.38194 22.3362C7.72971 22.3362 7.72981 22.684 7.72981 23.0318C7.72656 23.3795 7.37866 25.8107 7.0309 28.2418ZM10.5055 21.2929C10.1577 21.2929 9.46217 21.2929 9.46217 21.2929C9.1144 21.6407 8.76663 21.2929 8.07434 20.9451C7.03104 20.5974 6.68653 20.2496 5.64323 20.9451C3.90764 21.2929 3.9076 20.9452 4.94765 19.9019C5.64318 19.2063 5.64322 19.2063 8.07434 19.2063C9.80993 19.2063 10.8532 19.5541 10.8532 19.5541C10.8532 19.5541 11.2009 19.9019 11.2009 20.2496C11.5487 20.9452 11.201 21.2929 10.5055 21.2929ZM17.4509 10.5251C17.1032 10.5251 17.1032 11.5685 17.1032 12.6085C16.7555 15.3874 16.06 16.4307 14.3244 17.4707C13.6289 17.8185 12.241 18.1663 11.1977 18.1663L9.46217 18.514V17.1262C9.1144 15.7351 8.41872 15.3906 8.41872 16.4307C8.07095 17.1262 8.41872 17.474 8.41872 17.474C8.76649 17.8218 9.1143 17.8217 9.1143 17.8217C9.1143 18.1695 8.76649 18.1695 8.41872 18.1695C7.37542 18.1695 4.59655 17.1262 4.94431 17.1262C5.63985 16.7784 5.63991 16.0829 4.5966 15.7352C3.5533 15.3874 2.16549 11.9129 2.16549 10.1773C1.81772 8.44176 2.86097 6.35519 3.90103 5.6629C4.24879 5.31514 4.59656 5.31513 3.90103 4.96736C3.20549 3.92406 3.55337 3.5763 5.63672 2.53625C7.37231 1.84071 10.4989 1.84069 12.5855 2.18846H13.6288C13.9766 2.53623 16.0599 4.27181 16.4077 5.31511C17.451 7.05395 17.7987 9.83285 17.4509 10.5251Z" fill="#CED5B5"/>
</svg>
